<svg width="100" height="175" viewBox="0 0 100 175" fill="none" xmlns="http://www.w3.org/2000/svg">
    <path d="M26.7515 46.5688C26.8128 44.6795 26.9354 42.0045 26.9354 38.8389H22.9785C22.9785 42.0045 23.1011 44.6795 23.2237 46.5688H0.886719C2.95434 34.9433 6.54898 6.58186 6.84993 0.925171H44.7693C45.438 6.76577 49.1497 35.0715 51.34 46.5744H26.7515V46.5688ZM25.1687 27.52H26.8128C26.6288 23.6244 26.3892 19.6675 25.9601 15.8945C25.6536 13.8882 25.4139 11.0236 25.1687 8.59375H24.8009C24.5557 11.0292 24.316 13.8882 24.0708 15.8945C23.6472 19.6675 23.402 23.6244 23.2181 27.52H25.1631H25.1687Z" fill="white"></path>
    <path d="M75.3666 30.9308C75.4279 29.7158 75.4279 25.9986 75.4279 24.7223C75.4279 23.017 75.4279 21.3729 75.3666 20.2193C79.2622 20.3419 83.2191 20.3419 86.0781 20.3419C89.5446 20.3419 94.0532 20.3419 98.6176 20.2193C99.5929 41.3357 95.8812 47.3658 74.8818 47.3658C57.6553 47.3658 50.1094 42.8628 50.1094 23.0838C50.1094 3.30492 57.5327 0.139404 75.1214 0.139404C93.9251 0.139404 98.7346 4.035 98.7346 14.6239C98.7346 15.6605 98.6733 16.6915 98.612 17.8507C95.023 17.7281 90.8208 17.6668 86.7413 17.6668C82.907 17.6668 79.2567 17.7281 76.4534 17.8507V15.7218C76.4534 12.9854 76.0856 12.0101 74.9319 12.0101C73.0427 12.0101 72.6804 14.6295 72.6804 23.3291C72.6804 31.4825 73.104 34.1019 75.4781 34.1019C76.877 34.1019 77.607 33.3105 77.9136 30.875L75.3555 30.9363L75.3666 30.9308Z" fill="white"></path>
    <path d="M39.9596 51.072C39.8983 52.7773 39.7757 55.5137 39.7757 57.8879C39.7757 60.3846 39.837 63.121 39.9596 64.8264C34.5426 64.7651 29.0642 64.7038 24.4998 64.7038V67.4402C29.733 67.4402 34.9661 67.3789 39.4692 67.195C39.4079 69.9313 39.3466 75.5936 39.4079 78.6978C35.0887 78.5139 29.6717 78.3913 24.4943 78.3913V81.2503C29.2425 81.2503 35.1444 81.189 39.954 81.1277C39.8314 83.134 39.8314 86.1769 39.8314 88.9802C39.8314 91.5995 39.8314 94.5811 39.954 96.7101H2.10156C2.28547 90.0781 2.34678 83.6244 2.34678 73.8882C2.34678 64.152 2.28547 57.6371 2.10156 51.0664H39.9596V51.072Z" fill="white"></path>
    <path d="M88.931 51.0719C88.6858 54.5997 88.6245 64.1575 88.6245 73.8324C88.6245 84.0591 88.6245 90.9976 88.8697 96.7155H66.4102C65.251 93.4274 64.4038 90.691 63.3673 87.832C62.2694 84.6665 61.4222 81.501 60.6866 78.3968H60.5027C60.7479 82.1698 60.9262 85.3966 61.0488 89.047C61.1714 92.82 61.1715 95.5006 61.2941 96.7155H42C42.0613 90.4458 42.1839 83.6299 42.1839 73.8937C42.1839 64.1575 42.2452 57.5813 42 51.0719H65.6745C66.0423 53.3234 67.8034 58.6179 68.7174 62.5748C69.3862 64.8876 70.055 67.3231 70.6067 70.0594L70.7906 69.9981C70.6067 66.9552 70.4841 64.2746 70.4228 62.2683C70.3615 58.0661 70.2389 54.1148 70.055 51.0719H88.9199H88.931Z" fill="white"></path>
    <path d="M28.8246 101.224C43.2477 101.224 49.9466 103.844 49.9466 121.672C49.9466 143.34 44.3456 146.868 28.5236 146.868H2.10156C2.22417 140.353 2.28547 133.782 2.28547 124.107C2.28547 114.432 2.22417 107.672 2.10156 101.224H28.8246V101.224ZM27.8493 122.954C27.8493 115.101 26.9966 114.126 25.1686 114.126C24.8008 114.126 24.4998 114.126 24.132 114.187C24.0094 117.169 24.0094 120.334 24.0094 123.561C24.0094 126.788 24.0094 129.402 24.0707 131.653H25.1686C27.0579 131.653 27.8493 130.617 27.8493 122.948V122.954Z" fill="white"></path>
    <path d="M74.73 146.873C74.7913 144.984 74.9139 142.309 74.9139 139.144H70.957C70.957 142.309 71.0796 144.984 71.2022 146.873H48.8652C50.9329 135.248 54.5275 106.887 54.8284 101.224H92.7478C93.4166 107.065 97.1282 135.371 99.3185 146.873H74.73V146.873ZM73.1472 127.825H74.7913C74.6074 123.929 74.3677 119.972 73.9386 116.199C73.6321 114.193 73.3924 111.328 73.1472 108.898H72.7794C72.5342 111.334 72.2945 114.193 72.0493 116.199C71.6258 119.972 71.3805 123.929 71.1966 127.825H73.1416H73.1472Z" fill="white"></path>
    <path d="M11.8872 154.553C11.2296 156.002 10.5218 158.582 9.17867 159.195C10.1986 159.424 10.5942 160.037 10.8562 160.828C11.4414 162.266 11.7312 163.141 11.9095 163.548H8.37058C7.96374 163.548 7.79655 163.442 7.71295 163.119C7.40086 162.244 6.94386 160.934 6.46458 160.215H6.34197C6.35311 161.453 6.36426 162.567 6.39213 163.548H2.61914C2.65258 162.238 2.6693 160.968 2.6693 159.051C2.6693 157.133 2.65815 155.835 2.61914 154.553H6.3977C6.36426 155.69 6.34754 157.106 6.34754 158.532H6.43114C6.65964 158.064 6.87699 157.596 7.06647 157.189C7.53461 155.98 7.7854 155.127 7.96374 154.553H11.8872V154.553Z" fill="white"></path>
    <path d="M16.6129 163.704C13.2078 163.704 11.8535 162.311 11.8535 158.85C11.8535 155.389 13.414 154.403 16.6129 154.403C19.8119 154.403 21.456 155.434 21.456 158.85C21.456 162.266 20.0292 163.704 16.6129 163.704ZM17.6217 158.833C17.6217 157.356 17.2984 156.927 16.6241 156.927C15.9497 156.927 15.6154 157.345 15.6154 158.833C15.6154 160.416 15.9386 160.906 16.6241 160.906C17.3096 160.906 17.6217 160.405 17.6217 158.833Z" fill="white"></path>
    <path d="M31.1147 154.553C31.0813 155.333 31.0646 157.133 31.0646 159.039C31.0646 161.04 31.0646 162.411 31.0869 163.548H27.3362C27.0352 162.818 26.4501 161.737 25.9206 160.778C25.6587 160.165 25.4525 159.558 25.2853 158.934L25.2518 158.945C25.3131 159.703 25.3354 160.371 25.3577 161.079C25.38 162.328 25.38 163.18 25.4079 163.548H22.1699C22.1811 162.328 22.1922 160.968 22.1922 159.051C22.1922 157.133 22.2034 155.79 22.1699 154.553H26.1993C26.3553 155.055 27.0965 156.52 27.5758 157.624C27.7542 158.081 27.9214 158.594 28.0663 159.134H28.0997C28.0495 158.488 28.0272 157.897 28.0161 157.407C28.005 156.353 27.9659 155.222 27.9325 154.553H31.1092H31.1147Z" fill="white"></path>
    <path d="M37.3577 157.49C37.3577 156.866 37.1069 156.604 36.5663 156.604C35.8363 156.604 35.5576 157.167 35.5576 158.978C35.5576 160.683 35.8084 161.33 36.6611 161.33C37.224 161.33 37.4748 161.068 37.5584 160.349C37.185 160.36 36.8171 160.36 36.4772 160.371C36.4883 160.154 36.4883 159.569 36.4883 159.351C36.4883 159.006 36.4883 158.683 36.4772 158.438C37.2463 158.46 38.0265 158.46 38.6005 158.46C39.2582 158.46 40.122 158.471 40.997 158.438C41.1864 162.25 40.5065 163.704 36.5496 163.704C33.2782 163.704 31.8125 162.445 31.8125 158.934C31.8125 155.422 33.2727 154.403 36.5831 154.403C39.8935 154.403 41.0304 155.434 41.0304 157.278C41.0304 157.468 41.0193 157.652 41.0081 157.852C40.4564 157.841 39.7709 157.83 39.091 157.83C38.411 157.83 37.8092 157.83 37.3522 157.852V157.49H37.3577Z" fill="white"></path>
    <path d="M46.3569 161.018C46.3569 160.516 46.1284 160.227 44.8354 160.048C42.1882 159.686 41.6699 158.789 41.6699 157.184C41.6699 155.255 42.8793 154.391 45.7717 154.391C49.032 154.391 49.8457 155.183 49.8457 156.86C49.8457 157.05 49.8345 157.256 49.8234 157.473C49.3552 157.423 48.5415 157.39 47.8951 157.39C47.4882 157.39 47.1148 157.401 46.8752 157.412C46.8863 157.317 46.8863 157.234 46.8863 157.172C46.8863 156.743 46.708 156.498 46.0114 156.498C45.4708 156.498 45.2701 156.688 45.2701 157.016C45.2701 157.473 45.4485 157.774 46.8863 157.997C49.2493 158.371 49.9794 159.101 49.9794 160.923C49.9794 162.746 48.9372 163.715 45.8442 163.715C42.5728 163.715 41.6811 162.985 41.6811 161.246C41.6811 161.018 41.6922 160.778 41.7145 160.527C42.2662 160.561 43.0576 160.622 43.7988 160.622C44.1611 160.622 44.4843 160.611 44.724 160.6C44.7128 160.684 44.7128 160.767 44.7128 160.84C44.7128 161.369 44.919 161.597 45.5544 161.597C46.1897 161.597 46.3569 161.391 46.3569 161.023V161.018Z" fill="white"></path>
    <path d="M57.587 158.978C57.8879 159 58.1387 159.039 58.3449 159.101C59.3035 159.374 59.6045 160.037 59.6045 161.185C59.6045 162.913 58.8131 163.548 56.6451 163.548H50.6875C50.7377 162.266 50.7488 160.957 50.7488 159.051C50.7488 157.145 50.7377 155.813 50.6875 154.553H56.5504C58.4062 154.553 59.5264 155.071 59.5264 156.905C59.5264 157.997 59.2478 158.454 58.4007 158.761C58.1833 158.833 57.9102 158.883 57.5981 158.917V158.978H57.587ZM55.1404 156.415C54.8617 156.415 54.5664 156.415 54.2431 156.437C54.232 156.927 54.232 157.563 54.232 158.209C54.5552 158.22 54.845 158.22 55.107 158.22C55.6698 158.209 55.9318 157.947 55.9318 157.239C55.9318 156.604 55.681 156.415 55.1404 156.415ZM55.9652 160.6C55.9652 159.914 55.7033 159.703 55.1237 159.703C54.845 159.703 54.5497 159.714 54.2264 159.725C54.2264 160.349 54.2264 160.962 54.2376 161.486C54.5719 161.508 54.8729 161.508 55.1348 161.508C55.72 161.508 55.9596 161.28 55.9596 160.594L55.9652 160.6Z" fill="white"></path>
    <path d="M67.6913 154.553C67.6802 154.843 67.669 155.344 67.669 155.751C67.669 156.18 67.6802 156.721 67.6913 157.022C66.4318 157 65.0998 157 64.0577 157V157.886C65.2782 157.886 66.5656 157.875 67.5966 157.836C67.5854 158.337 67.5743 159.407 67.5854 159.959C66.5767 159.937 65.2726 159.909 64.0577 159.909V160.834C65.1389 160.834 66.5377 160.823 67.6913 160.812C67.6802 161.157 67.6802 161.726 67.6802 162.205C67.6802 162.651 67.6802 163.186 67.6913 163.548H60.3516C60.385 162.289 60.4017 160.968 60.4017 159.051C60.4017 157.133 60.3906 155.79 60.3516 154.553H67.6913Z" fill="white"></path>
    <path d="M75.2322 159.864C76.5418 160.043 77.0769 160.427 77.3054 161.709C77.4112 162.294 77.5339 163.113 77.6286 163.542H74.4965C73.9671 163.542 73.8277 163.353 73.7163 162.584C73.5379 161.001 73.4153 160.689 72.8302 160.689C72.5905 160.689 72.4345 160.689 72.1837 160.7C72.206 161.837 72.2561 162.835 72.3286 163.542H68.6113C68.6225 162.25 68.6615 160.962 68.6615 159.045C68.6615 157.128 68.6503 155.846 68.6113 154.547H73.9336C76.1406 154.547 77.3722 155.233 77.3722 157.172C77.3722 158.889 76.7871 159.569 75.2266 159.775V159.859L75.2322 159.864ZM73.8278 157.741C73.8278 156.877 73.5379 156.671 72.9138 156.688C72.7577 156.676 72.4456 156.688 72.1447 156.699C72.1447 157.406 72.1447 158.125 72.1558 158.811C72.3955 158.822 72.6853 158.822 73.0196 158.822C73.5825 158.822 73.8222 158.521 73.8222 157.741H73.8278Z" fill="white"></path>
    <path d="M83.4749 157.49C83.4749 156.866 83.2241 156.604 82.6835 156.604C81.9535 156.604 81.6748 157.167 81.6748 158.978C81.6748 160.683 81.9256 161.33 82.7783 161.33C83.3412 161.33 83.592 161.068 83.6755 160.349C83.3022 160.36 82.9343 160.36 82.5944 160.371C82.6055 160.154 82.6055 159.569 82.6055 159.351C82.6055 159.006 82.6055 158.683 82.5944 158.438C83.3635 158.46 84.1437 158.46 84.7177 158.46C85.3753 158.46 86.2392 158.471 87.1141 158.438C87.3036 162.25 86.6237 163.704 82.6668 163.704C79.3954 163.704 77.9297 162.445 77.9297 158.934C77.9297 155.422 79.3898 154.403 82.7003 154.403C86.0107 154.403 87.1476 155.434 87.1476 157.278C87.1476 157.468 87.1364 157.652 87.1253 157.852C86.5736 157.841 85.8881 157.83 85.2081 157.83C84.5282 157.83 83.9263 157.83 83.4693 157.852V157.49H83.4749Z" fill="white"></path>
    <path d="M7.93107 174.209C7.91993 173.864 7.88091 173.284 7.82518 172.593H6.01393C5.94148 173.279 5.90804 173.853 5.89689 174.209H2.14062C2.70351 171.941 3.77354 166.39 3.95188 165.214H10.1269C10.3554 166.413 11.4477 171.93 12.044 174.209H7.93107ZM7.59669 170.553C7.4908 169.74 7.35704 168.887 7.22329 168.129C7.10068 167.639 7.01708 167.048 6.94463 166.597H6.88333C6.81088 167.054 6.71614 167.628 6.61025 168.146C6.47649 168.904 6.35946 169.74 6.248 170.553H7.59111H7.59669Z" fill="white"></path>
    <path d="M17.5667 168.151C17.5667 167.527 17.3159 167.265 16.7753 167.265C16.0453 167.265 15.7666 167.828 15.7666 169.639C15.7666 171.345 16.0174 171.991 16.8701 171.991C17.433 171.991 17.6838 171.729 17.7673 171.01C17.3939 171.022 17.0261 171.022 16.6862 171.033C16.6973 170.815 16.6973 170.23 16.6973 170.013C16.6973 169.667 16.6973 169.344 16.6862 169.099C17.4553 169.121 18.2355 169.121 18.8095 169.121C19.4671 169.121 20.331 169.132 21.2059 169.099C21.3954 172.911 20.7155 174.365 16.7586 174.365C13.4872 174.365 12.0215 173.106 12.0215 169.595C12.0215 166.084 13.4816 165.064 16.7921 165.064C20.1025 165.064 21.2394 166.095 21.2394 167.94C21.2394 168.129 21.2282 168.313 21.2171 168.514C20.6654 168.503 19.9799 168.491 19.2999 168.491C18.62 168.491 18.0181 168.491 17.5611 168.514V168.151H17.5667Z" fill="white"></path>
    <path d="M29.4159 165.214C29.4048 165.504 29.3936 166.006 29.3936 166.413C29.3936 166.842 29.4048 167.382 29.4159 167.683C28.1564 167.661 26.8244 167.661 25.7823 167.661V168.547C27.0028 168.547 28.2902 168.536 29.3212 168.497C29.3101 168.999 29.2989 170.069 29.31 170.62C28.3013 170.598 26.9972 170.57 25.7823 170.57V171.495C26.8635 171.495 28.2623 171.484 29.4159 171.473C29.4048 171.819 29.4048 172.387 29.4048 172.866C29.4048 173.312 29.4048 173.847 29.4159 174.209H22.0762C22.1096 172.95 22.1263 171.629 22.1263 169.712C22.1263 167.795 22.1152 166.452 22.0762 165.214H29.4159Z" fill="white"></path>
    <path d="M39.2964 165.214C39.2629 165.995 39.2462 167.795 39.2462 169.701C39.2462 171.702 39.2462 173.073 39.2685 174.209H35.5178C35.2169 173.479 34.6317 172.398 34.1023 171.44C33.8403 170.827 33.6341 170.219 33.4669 169.595L33.4335 169.606C33.4948 170.364 33.5171 171.033 33.5394 171.741C33.5617 172.989 33.5617 173.842 33.5895 174.209H30.3516C30.3627 172.989 30.3739 171.629 30.3739 169.712C30.3739 167.795 30.385 166.452 30.3516 165.214H34.3809C34.537 165.716 35.2782 167.182 35.7575 168.285C35.9358 168.742 36.103 169.255 36.2479 169.796H36.2813C36.2312 169.149 36.2089 168.558 36.1977 168.068C36.1866 167.015 36.1476 165.883 36.1141 165.214H39.2908H39.2964Z" fill="white"></path>
    <path d="M45.0306 165.214C47.9899 165.214 49.3219 165.922 49.3219 169.35C49.3219 173.295 48.1683 174.204 44.9805 174.204H40.2656C40.2879 172.933 40.2991 171.623 40.2991 169.717C40.2991 167.811 40.2879 166.429 40.2656 165.209H45.025L45.0306 165.214ZM45.6548 169.534C45.6548 167.817 45.3316 167.589 44.5625 167.589C44.3563 167.589 44.1445 167.6 43.9383 167.6C43.916 168.274 43.916 168.965 43.916 169.673C43.916 170.442 43.916 171.027 43.9271 171.518C44.1334 171.529 44.334 171.529 44.5513 171.529C45.3316 171.529 45.6548 171.267 45.6548 169.528V169.534Z" fill="white"></path>
    <path d="M55.1794 174.209C55.1683 173.864 55.1292 173.284 55.0735 172.593H53.2623C53.1898 173.279 53.1564 173.853 53.1452 174.209H49.3945C49.9574 171.941 51.0274 166.39 51.2058 165.214H57.3808C57.6093 166.413 58.7016 171.93 59.2979 174.209H55.185H55.1794ZM54.845 170.553C54.7391 169.74 54.6054 168.887 54.4716 168.129C54.349 167.639 54.2654 167.048 54.193 166.597H54.1317C54.0592 167.054 53.9645 167.628 53.853 168.146C53.7193 168.904 53.6022 169.74 53.4908 170.553H54.8339H54.845Z" fill="white"></path>
</svg>