<?xml version="1.0" encoding="UTF-8"?>
<svg xmlns="http://www.w3.org/2000/svg" width="103" height="57" viewBox="0 0 103 57" fill="none">
  <g clip-path="url(#clip0_245_3382)">
    <path d="M69.279 40.9478L68.9635 40.6733C56.5367 29.8662 45.0222 24.8196 34.7439 25.6937C22.8244 26.6989 15.6411 35.4915 13.2793 38.3801L13.0832 38.6166L12.836 38.435C7.15332 34.2668 0.242882 36.0827 0.174673 36.1038L0.00415039 35.4873C0.0723595 35.4704 7.08084 33.6164 12.9681 37.7424C15.5516 34.5877 22.803 26.0569 34.6885 25.0561C45.0563 24.1776 56.6305 29.1779 69.0701 39.9174C76.6541 24.5197 82.7162 12.357 94.7636 5.36768L95.0919 5.92091C83.1127 12.868 77.089 25.0941 69.4666 40.5719L69.279 40.9478Z" fill="#F5F3F3"></path>
    <path d="M13.1174 43.5281C14.4645 43.5281 15.4706 44.094 16.1356 45.2258C16.8006 46.3576 17.1332 47.8821 17.1332 49.7952C17.1332 51.1551 17.0479 52.3291 16.8774 53.3258C16.7069 54.3224 16.2976 55.1798 15.6539 55.9104C15.0102 56.6367 14.0936 57.0042 12.9127 57.0042C11.7319 57.0042 10.7087 56.3834 9.82626 55.1375V56.7001H6.76538V38.9248H10.0565V45.2553C10.8878 44.1066 11.9109 43.5323 13.1174 43.5323V43.5281ZM10.0437 50.0655C10.0437 50.7919 10.082 51.438 10.1545 52.0039C10.227 52.5698 10.4103 53.0724 10.7045 53.5116C10.9986 53.9508 11.4462 54.1746 12.0516 54.1746C12.4694 54.1746 12.8104 54.0479 13.0747 53.7946C13.339 53.5412 13.5394 53.1062 13.6758 52.4896C13.8122 51.873 13.8762 51.0284 13.8762 49.9557C13.8762 48.6803 13.727 47.747 13.4243 47.16C13.1216 46.5729 12.6783 46.2815 12.09 46.2815C11.4548 46.2815 10.9517 46.5941 10.5894 47.2149C10.227 47.8357 10.0437 48.7859 10.0437 50.0655Z" fill="#F5F3F3"></path>
    <path d="M28.8481 47.7471V53.1443C28.8481 53.8327 28.9078 54.4831 29.0315 55.1039C29.1551 55.7204 29.3427 56.2526 29.5942 56.7002H26.4097C26.2221 56.3032 26.0857 55.8978 26.0047 55.4755C25.5954 55.9949 25.1307 56.3793 24.6107 56.6284C24.0863 56.8776 23.5023 57.0043 22.85 57.0043C22.1551 57.0043 21.5285 56.8607 20.97 56.5693C20.4115 56.2779 19.9682 55.8556 19.6399 55.3023C19.3117 54.7491 19.1497 54.0819 19.1497 53.309C19.1497 52.5362 19.2776 51.9365 19.5333 51.4255C19.7891 50.9103 20.1941 50.4795 20.744 50.129C21.294 49.7785 22.023 49.4786 22.931 49.2379C24.3336 48.8663 25.2586 48.5791 25.7105 48.3764V48.1568C25.7105 46.7927 25.2075 46.1085 24.2057 46.1085C23.7239 46.1085 23.353 46.2479 23.093 46.5266C22.8329 46.8053 22.6283 47.2065 22.4791 47.7344L19.5547 47.1516C19.7891 45.9861 20.3135 45.095 21.1277 44.4699C21.9377 43.8491 23.0248 43.5366 24.3762 43.5366C25.7276 43.5366 26.8957 43.8703 27.6758 44.5291C28.4559 45.1921 28.8439 46.269 28.8439 47.7556L28.8481 47.7471ZM24.4785 50.9609L24.146 51.0707C23.7452 51.2017 23.4213 51.3241 23.174 51.4466C22.9267 51.5691 22.7093 51.7507 22.5303 51.9914C22.3512 52.2321 22.2617 52.5531 22.2617 52.95C22.2617 53.4188 22.3853 53.8116 22.6283 54.1283C22.8713 54.445 23.2252 54.6013 23.6813 54.6013C24.325 54.6013 24.8238 54.3564 25.1819 53.8623C25.5357 53.3681 25.7148 52.6798 25.7148 51.8013V50.5175C25.3226 50.6611 24.9091 50.8131 24.4785 50.9652V50.9609Z" fill="#F5F3F3"></path>
    <path d="M37.306 43.8196V46.4126H35.3492V52.6586C35.3492 53.0936 35.3748 53.4315 35.4302 53.6637C35.4814 53.9002 35.5752 54.0692 35.7116 54.1747C35.848 54.2803 36.0441 54.331 36.3042 54.331C36.5344 54.331 36.8669 54.2761 37.306 54.1621L37.5277 56.5651C36.6878 56.8565 35.9247 57 35.2384 57C34.1129 57 33.2987 56.7044 32.8042 56.109C32.3054 55.5135 32.0581 54.6393 32.0581 53.4821V46.4126H30.5789V43.8196H32.0581V41.311L35.3492 39.457V43.8238H37.306V43.8196Z" fill="#F5F3F3"></path>
    <path d="M44.6854 43.8196V46.4126H42.7286V52.6586C42.7286 53.0936 42.7542 53.4315 42.8096 53.6637C42.8608 53.9002 42.9546 54.0692 43.091 54.1747C43.2274 54.2803 43.4235 54.331 43.6836 54.331C43.9138 54.331 44.2463 54.2761 44.6854 54.1621L44.9071 56.5651C44.0672 56.8565 43.3041 57 42.6178 57C41.4923 57 40.6781 56.7044 40.1836 56.109C39.6848 55.5135 39.4375 54.6393 39.4375 53.4821V46.4126H37.9583V43.8196H39.4375V41.311L42.7286 39.457V43.8238H44.6854V43.8196Z" fill="#F5F3F3"></path>
    <path d="M56.767 50.4623V51.2858H49.3492C49.3492 51.8981 49.4345 52.4471 49.605 52.9244C49.7755 53.4016 50.0228 53.769 50.3383 54.0351C50.6537 54.3011 51.0204 54.4278 51.4296 54.4278C51.9369 54.4278 52.3547 54.2673 52.6915 53.9421C53.024 53.617 53.2244 53.1946 53.2926 52.6668L56.524 53.0426C56.4174 53.769 56.1531 54.4363 55.7268 55.0359C55.3005 55.6399 54.725 56.1171 54.0002 56.4676C53.2755 56.8181 52.4272 56.9955 51.468 56.9955C49.6391 56.9955 48.292 56.4254 47.4266 55.2809C46.5612 54.1364 46.1306 52.5612 46.1306 50.5594C46.1306 48.2155 46.5996 46.4587 47.5374 45.2847C48.4753 44.1106 49.7841 43.5278 51.468 43.5278C52.7426 43.5278 53.77 43.8488 54.5587 44.4865C55.3474 45.1242 55.9101 45.9646 56.2554 47.0035C56.6007 48.0424 56.7712 49.1953 56.7712 50.4665L56.767 50.4623ZM49.3876 49.1404H53.429C53.348 48.1142 53.1519 47.3498 52.8407 46.8557C52.5295 46.3573 52.052 46.1082 51.4083 46.1082C50.1677 46.1082 49.4942 47.1175 49.3876 49.1404Z" fill="#F5F3F3"></path>
    <path d="M64.3935 46.6825C63.7242 46.6825 63.2424 47.0457 62.944 47.7721C62.6456 48.4985 62.4964 49.6472 62.4964 51.214V56.6956H59.2053V43.8192H62.279V45.7703C62.7991 44.2753 63.6432 43.5278 64.7985 43.5278C65.2972 43.5278 65.8088 43.6714 66.3417 43.9628L65.5445 46.9444C65.1097 46.767 64.7303 46.6783 64.3935 46.6783V46.6825Z" fill="#F5F3F3"></path>
    <path d="M67.5652 56.6958V43.8193H70.8563V56.6958H67.5652Z" fill="#F5F3F3"></path>
    <path d="M84.0889 50.4623V51.2858H76.6711C76.6711 51.8981 76.7564 52.4471 76.9269 52.9244C77.0974 53.4016 77.3447 53.769 77.6602 54.0351C77.9799 54.2969 78.3422 54.4278 78.7472 54.4278C79.2545 54.4278 79.6723 54.2673 80.0091 53.9421C80.3416 53.617 80.542 53.1946 80.6102 52.6668L83.8416 53.0426C83.735 53.769 83.4707 54.4363 83.0444 55.0359C82.6181 55.6399 82.0426 56.1171 81.3179 56.4676C80.5931 56.8181 79.7491 56.9955 78.7856 56.9955C76.9567 56.9955 75.6096 56.4254 74.7442 55.2809C73.8788 54.1364 73.4482 52.5612 73.4482 50.5594C73.4482 48.2155 73.9172 46.4587 74.8551 45.2847C75.7929 44.1106 77.1017 43.5278 78.7856 43.5278C80.0603 43.5278 81.0877 43.8488 81.8763 44.4865C82.665 45.1242 83.2277 45.9646 83.573 47.0035C83.9141 48.0424 84.0889 49.1953 84.0889 50.4665V50.4623ZM76.7095 49.1404H80.7509C80.6699 48.1142 80.4738 47.3498 80.1626 46.8557C79.8514 46.3573 79.3739 46.1082 78.7302 46.1082C77.4896 46.1082 76.8161 47.1175 76.7095 49.1404Z" fill="#F5F3F3"></path>
    <path d="M90.441 45.931C90.0914 45.931 89.8058 46.0154 89.5883 46.1843C89.3709 46.3533 89.2643 46.5855 89.2643 46.8769C89.2643 47.1177 89.3496 47.3415 89.5201 47.5442C89.6907 47.7469 89.9081 47.9285 90.1766 48.089C90.4452 48.2495 90.8033 48.448 91.2595 48.6845L91.7966 48.9632C92.6279 49.3855 93.2844 49.7487 93.7619 50.0612C94.2393 50.3737 94.6571 50.7791 95.011 51.2859C95.3648 51.7927 95.5438 52.4008 95.5438 53.1103C95.5438 54.2928 95.1559 55.2346 94.3758 55.9398C93.5956 56.6493 92.3806 56.9999 90.7223 56.9999C89.2601 56.9999 88.1048 56.6747 87.2479 56.0285C86.391 55.3824 85.8368 54.4026 85.5811 53.0934L88.7656 52.5951C88.9062 53.1863 89.1706 53.6593 89.5628 54.0141C89.955 54.3688 90.4196 54.5462 90.9568 54.5462C91.4044 54.5462 91.7582 54.4533 92.0098 54.2717C92.2613 54.0901 92.3892 53.8283 92.3892 53.4904C92.3892 53.2328 92.2954 52.9963 92.1121 52.7851C91.9288 52.574 91.69 52.3839 91.4001 52.215C91.1103 52.0461 90.7479 51.8518 90.3173 51.6407C89.8868 51.4253 89.5969 51.2775 89.4477 51.1972C88.7784 50.8425 88.2156 50.4962 87.7637 50.1541C87.3119 49.8163 86.9367 49.3982 86.6383 48.8998C86.3399 48.4015 86.1907 47.8145 86.1907 47.1346C86.1907 46.5053 86.3527 45.9141 86.6809 45.3651C87.0092 44.816 87.4994 44.3726 88.1559 44.0305C88.8125 43.6927 89.6139 43.5195 90.5603 43.5195C91.8392 43.5195 92.8624 43.7898 93.6255 44.3262C94.3886 44.8625 94.8959 45.7156 95.1516 46.8769L92.0567 47.3626C91.9032 46.8854 91.6858 46.5264 91.4001 46.2857C91.1188 46.045 90.799 45.9225 90.441 45.9225V45.931Z" fill="#F5F3F3"></path>
    <path d="M99.5468 6.84152C101.454 6.84152 103 5.30999 103 3.42076C103 1.53153 101.454 0 99.5468 0C97.6397 0 96.0938 1.53153 96.0938 3.42076C96.0938 5.30999 97.6397 6.84152 99.5468 6.84152Z" fill="#F5F3F3"></path>
    <path d="M16.1529 23.447V32.5521H12.8618V23.9073C12.8618 23.2274 12.7552 22.7544 12.5378 22.4883C12.3204 22.2222 11.9751 22.0871 11.5019 22.0871C11.0287 22.0871 10.6663 22.2391 10.3892 22.5432C10.1121 22.8473 9.91175 23.3118 9.78812 23.9368C9.66449 24.5619 9.60481 25.3812 9.60481 26.3905V32.5521H6.31372V19.6757H9.3746V21.4959C10.1761 20.0895 11.31 19.3843 12.7765 19.3843C13.9105 19.3843 14.7589 19.7306 15.3173 20.4274C15.8758 21.1242 16.1571 22.1293 16.1571 23.447H16.1529Z" fill="#F5F3F3"></path>
    <path d="M18.6255 25.9471C18.6255 24.6463 18.8216 23.5019 19.2181 22.5136C19.6145 21.5254 20.2071 20.761 20.9915 20.2078C21.7802 19.6588 22.7436 19.3843 23.8861 19.3843C25.0286 19.3843 26.0603 19.6757 26.8362 20.2627C27.612 20.8497 28.179 21.6394 28.5456 22.6403C28.908 23.637 29.0913 24.7815 29.0913 26.0653C29.0913 27.5265 28.8782 28.7681 28.4561 29.7817C28.0298 30.7953 27.4245 31.5639 26.6401 32.0791C25.8514 32.5943 24.922 32.8562 23.8435 32.8562C22.2022 32.8562 20.9233 32.286 20.0067 31.1416C19.0902 29.9971 18.6298 28.2656 18.6298 25.9471H18.6255ZM23.852 22.2265C23.1486 22.2265 22.6541 22.5516 22.3642 23.202C22.0743 23.8524 21.9294 24.8195 21.9294 26.1075C21.9294 28.7175 22.5731 30.0224 23.8648 30.0224C25.1565 30.0224 25.7874 28.7344 25.7874 26.154C25.7874 24.7646 25.634 23.7595 25.327 23.1471C25.0201 22.5348 24.5298 22.2265 23.852 22.2265Z" fill="#F5F3F3"></path>
    <path d="M36.8757 22.539C36.2064 22.539 35.7246 22.9022 35.4262 23.6286C35.1278 24.3549 34.9786 25.5036 34.9786 27.0704V32.5521H31.6875V19.6757H34.7612V21.6268C35.2813 20.1318 36.1254 19.3843 37.2806 19.3843C37.7794 19.3843 38.291 19.5279 38.8239 19.8193L38.0267 22.8008C37.5961 22.6234 37.2124 22.5348 36.8757 22.5348V22.539Z" fill="#F5F3F3"></path>
    <path d="M46.7019 32.5565V30.994C45.8365 32.2398 44.8049 32.8606 43.6069 32.8606C42.2428 32.8606 41.1941 32.2863 40.4565 31.1333C39.719 29.9804 39.3481 28.2616 39.3481 25.9726C39.3481 24.4945 39.5272 23.2614 39.881 22.2816C40.2349 21.2976 40.7251 20.5712 41.3518 20.0982C41.9742 19.6252 42.7032 19.3887 43.5387 19.3887C44.7068 19.3887 45.6831 19.9631 46.476 21.1118V14.7812H49.7671V32.5565H46.7062H46.7019ZM42.652 25.6939C42.652 26.5765 42.6904 27.3156 42.7671 27.9195C42.8439 28.5234 43.0272 29.026 43.3128 29.4314C43.5984 29.8368 44.029 30.0395 44.6088 30.0395C45.261 30.0395 45.7385 29.689 46.0326 28.9837C46.3311 28.2785 46.4803 27.2185 46.4803 25.7953C46.4803 25.0266 46.395 24.3678 46.2287 23.8188C46.0625 23.2698 45.8323 22.8517 45.5381 22.5688C45.244 22.2858 44.9114 22.1464 44.5363 22.1464C43.9309 22.1464 43.4663 22.4336 43.1423 23.008C42.814 23.5823 42.652 24.4776 42.652 25.6981V25.6939Z" fill="#F5F3F3"></path>
    <path d="M52.875 17.8682V14.7769H56.1661V17.8682H52.875ZM52.875 32.5521V19.6757H56.1661V32.5521H52.875Z" fill="#F5F3F3"></path>
    <path d="M68.3585 23.5105L65.2507 24.0215C65.0802 22.8263 64.5644 22.2266 63.7075 22.2266C63.2769 22.2266 62.9444 22.3491 62.7099 22.5898C62.4755 22.8305 62.3135 23.236 62.2154 23.7977C62.1174 24.3593 62.0705 25.1575 62.0705 26.1922C62.0705 27.2269 62.1259 27.9744 62.241 28.5276C62.3561 29.0808 62.5309 29.4694 62.7739 29.6847C63.0126 29.9043 63.3366 30.0141 63.7331 30.0141C64.2063 30.0141 64.5771 29.8241 64.8415 29.4398C65.1058 29.0555 65.2763 28.4727 65.3488 27.6872L68.5674 28.27C68.1027 31.336 66.5339 32.8648 63.8652 32.8648C62.16 32.8648 60.8811 32.3242 60.0327 31.2389C59.1844 30.1577 58.7581 28.4811 58.7581 26.2175C58.7581 23.9539 59.1929 22.1295 60.0668 21.0315C60.9407 19.9377 62.16 19.3887 63.7245 19.3887C65.012 19.3887 66.0607 19.7603 66.8579 20.4994C67.6593 21.2384 68.1539 22.2435 68.35 23.5147L68.3585 23.5105Z" fill="#F5F3F3"></path>
  </g>
  <defs>
    <clipPath id="clip0_245_3382">
      <rect width="103" height="57" fill="white"></rect>
    </clipPath>
  </defs>
</svg>
