<svg width="50" height="45" viewBox="0 0 50 45" fill="none" xmlns="http://www.w3.org/2000/svg"><path d="M0 23.2155L9.74127 13.5425L0 3.86944L3.89673 0L13.638 9.67304L23.3793 0L27.276 3.86944L17.5347 13.5425L27.276 23.2155L23.3793 27.085L13.638 17.4119L3.89673 27.085L0 23.2155ZM7.38364 36.9056L7.47315 38.6804L0.53649 32.2194H0V44.8222H3.21838V40.3312L3.12887 38.539L10.0644 45H10.6009V32.3972H7.38364V36.9056ZM21.5531 40.562C21.5531 43.4029 19.5692 45 16.8164 45C14.0625 45 12.1147 43.2252 12.1147 40.562C12.1147 38.0778 14.0625 36.1252 16.8164 36.1252C19.5692 36.1247 21.5531 37.9001 21.5531 40.562ZM18.5148 40.562C18.5148 39.3199 17.7633 38.5563 16.8344 38.5563C15.869 38.5563 15.154 39.3199 15.154 40.562C15.154 41.8053 15.8695 42.5689 16.8344 42.5689C17.7633 42.5689 18.5148 41.8053 18.5148 40.562ZM26.3398 41.556V38.397H27.9487V36.3024H26.3398V33.7813H25.8568L22.3536 37.4557V38.397H23.3545V42.2134C23.3545 44.0413 24.0514 44.8222 26.0713 44.8222H27.4652L28.1807 42.4616H27.3047C26.5549 42.4616 26.3398 42.1245 26.3398 41.556ZM36.0073 42.1776C33.8631 42.1776 32.6111 40.7219 32.6111 38.61C32.6111 36.4081 34.041 35.0413 35.9539 35.0413C37.0083 35.0413 37.8133 35.3611 38.4207 35.8407L39.9226 33.3196C39.0281 32.6979 37.4384 32.2194 35.8644 32.2194C31.8421 32.2194 29.2683 34.8814 29.2683 38.61C29.2683 42.3375 31.7526 44.9994 35.8829 44.9994C37.6168 44.9994 39.0827 44.432 40.1017 43.6684L38.5997 41.3251C37.9737 41.8411 37.1873 42.1776 36.0073 42.1776ZM50 40.562C50 43.4029 48.0162 45 45.2633 45C42.5094 45 40.5616 43.2252 40.5616 40.562C40.5616 38.0778 42.5094 36.1252 45.2633 36.1252C48.0162 36.1247 50 37.9001 50 40.562ZM46.9618 40.562C46.9618 39.3199 46.2102 38.5563 45.2814 38.5563C44.3159 38.5563 43.601 39.3199 43.601 40.562C43.601 41.8053 44.3165 42.5689 45.2814 42.5689C46.2102 42.5689 46.9618 41.8053 46.9618 40.562Z" fill="black"></path></svg>