<svg xmlns="http://www.w3.org/2000/svg" width="138" height="48" viewBox="0 0 138 48" fill="none">
  <g clip-path="url(#smgiehodme-clip0_494_4537)" shape-rendering="geometricPrecision">
    <path d="M78.7701 18.0566C73.5384 18.0566 69.2969 22.2483 69.2969 27.4175C69.2969 32.5868 73.5384 36.7794 78.7701 36.7794C84.0018 36.7794 88.2424 32.5877 88.2424 27.4175C88.2424 22.2473 84.0018 18.0566 78.7701 18.0566ZM78.7847 32.3361C76.0279 32.3361 73.794 30.1275 73.794 27.4041C73.794 24.6807 76.0279 22.4721 78.7847 22.4721C81.5414 22.4721 83.7764 24.6807 83.7764 27.4041C83.7764 30.1275 81.5414 32.3361 78.7847 32.3361Z" fill="black" shape-rendering="geometricPrecision"></path>
    <path d="M108.388 18.0566C103.157 18.0566 98.916 22.2483 98.916 27.4175C98.916 32.5868 103.157 36.7794 108.388 36.7794C113.62 36.7794 117.862 32.5877 117.862 27.4175C117.862 22.2473 113.62 18.0566 108.388 18.0566ZM108.404 32.3361C105.647 32.3361 103.412 30.1275 103.412 27.4041C103.412 24.6807 105.647 22.4721 108.404 22.4721C111.161 22.4721 113.395 24.6807 113.395 27.4041C113.395 30.1275 111.161 32.3361 108.404 32.3361Z" fill="black" shape-rendering="geometricPrecision"></path>
    <path d="M95.592 10.5625H91.125V36.3357H95.592V10.5625Z" fill="black" shape-rendering="geometricPrecision"></path>
    <path d="M125.295 18.4863H120.828V36.3352H125.295V18.4863Z" fill="black" shape-rendering="geometricPrecision"></path>
    <path d="M124.756 23.1077C124.756 23.1077 125.626 18.5156 130.848 18.5156C136.732 18.5156 137.376 23.8183 137.376 25.9214V36.3348H132.91V27.018C132.91 25.448 132.416 22.4835 129.654 22.4835C126.375 22.4835 125.296 26.2479 125.296 27.3138" fill="black" shape-rendering="geometricPrecision"></path>
    <path d="M61.2108 18.064C60.551 16.1386 58.6552 14.9258 56.3989 14.9258C53.8238 14.9258 52.271 16.348 52.271 18.0323C52.271 19.3047 52.8395 20.2036 54.8082 20.5771L60.2614 21.6622C64.3893 22.5227 66.9274 24.956 66.9274 28.8481C66.9274 33.7139 62.8754 36.7455 56.8536 36.7455C51.551 36.7455 46.8936 34.3131 46.2493 29.2975C46.2493 29.2975 46.1113 28.3804 46.1113 28.0251H51.6268L51.6647 28.2124C52.3468 31.0567 54.4671 32.2917 57.3453 32.2917C60.2235 32.2917 61.8521 30.9069 61.8521 29.1102C61.8521 27.6881 61.17 26.8267 58.8981 26.3782L53.5207 25.368C50.4908 24.7313 46.8547 23.0854 46.8547 18.1821C46.8547 13.6909 50.5666 10.5469 56.5126 10.5469C61.6636 10.5469 65.5641 13.3164 66.5484 17.7702L66.5999 18.0563L61.2098 18.064H61.2108Z" fill="black" shape-rendering="geometricPrecision"></path>
    <path d="M36.3169 38.4001L29.134 31.3016C30.6974 29.1554 31.6245 26.527 31.6245 23.6855C31.6245 16.4728 25.6873 10.6054 18.3887 10.6054C15.5134 10.6054 12.8519 11.5187 10.6791 13.0638L6.09071 8.52929C9.46062 5.85201 13.7371 4.2464 18.3887 4.2464C24.5844 4.2464 30.1164 7.09462 33.7253 11.5331L36.7784 8.51585C32.3785 3.31492 25.7689 0 18.3887 0C11.0086 0 4.39992 3.31492 0 8.51585L0.734616 9.24183L7.64059 16.0666C6.0771 18.2138 5.153 20.844 5.153 23.6855C5.153 30.8983 11.0902 36.7657 18.3887 36.7657V32.5193C13.4602 32.5193 9.44993 28.5561 9.44993 23.6855C9.44993 22.0185 9.92024 20.458 10.7355 19.1261L30.6858 38.8418C27.3159 41.5201 23.0384 43.1247 18.3878 43.1247C12.1921 43.1247 6.66013 40.2765 3.05216 35.839L0 38.8562C4.39992 44.0562 11.0086 47.3711 18.3887 47.3711C25.7689 47.3711 32.3775 44.0562 36.7775 38.8552L36.3169 38.4001ZM18.3897 14.8518C23.3182 14.8518 27.3285 18.815 27.3285 23.6855C27.3285 25.3526 26.8553 26.9112 26.04 28.2431L13.776 16.1233C15.1238 15.3176 16.7028 14.8528 18.3907 14.8528" fill="black" shape-rendering="geometricPrecision"></path>
  </g>
  <defs>
    <clipPath id="smgiehodme-clip0_494_4537" shape-rendering="geometricPrecision">
      <rect width="137.376" height="47.3711" fill="white" shape-rendering="geometricPrecision"></rect>
    </clipPath>
  </defs>
</svg>